# xmcd
#
# Track frame offsets:
#	150
#	13411
#	26606
#	36415
#	48870
#	64533
#	79249
#	88027
#	98525
#	110223
#	120239
#	132369
#	142904
#	153835
#	165047
#	176574
#	188475
#	198856
#	211273
#	223646
#	236526
#	248900
#	260128
#	270605
#	283863
#
# Disc length: 3929 seconds
# Revision: 0
# Processed by: cddbd v1.5.2PL0 Copyright (c) Steve Scherf et al.
# Submitted via: dBpowerAMP V12.0
#
DISCID=580f5719
DTITLE=Various Artist - A Shot Of Rhythm and Blues
DYEAR=2016
DGENRE=Rhythm and Blues
TTITLE0=Johnny "Guitar" Watson - Broke And Lonely
TTITLE1=Etta James - Seven Day Fool
TTITLE2=Albert King - This Morning
TTITLE3=Bo Diddley - You Can't Judge A Book By Its Cover
TTITLE4=El Pauling and Royal Abbit - Send Me Somebody
TTITLE5=James Brown - Night Train
TTITLE6=Lavern Baker - Love Me Right
TTITLE7=Eugene Church - I Ain't Goin' For That
TTITLE8=Nappy Brown - Little By Little
TTITLE9=Baby Washington - Hush Heart
TTITLE10=Richard Berry and The Pharaohs - Have Love Will Travel
TTITLE11=Marv Johnson - Come To Me
TTITLE12=Clyde McPhatter - Tomorrow Is A-Comin'
TTITLE13=Ruth Brown - Somebody Touched Me
TTITLE14=Little Walter - My Babe
TTITLE15=Aaron Neville - Humdinger
TTITLE16=Thurston Harris - Over And Over
TTITLE17=Hank Ballard and The Midnighters - Work With Me Annie
TTITLE18=Lavern Baker and Ben E. King - A Help-Each-Other Romance
TTITLE19=Little Willie John - Let Nobody Love You
TTITLE20=El Pauling and Royal Abbit - Come On Let's Have A Good Time
TTITLE21=Bill Doggett - Hold It
TTITLE22=Irma Thomas - Don't Mess With My Man
TTITLE23=Freddie King and Lula Reed - You Can't Hide
TTITLE24=Bobby Parker - Steal Your Heart Away
EXTD=
EXTT0=
EXTT1=
EXTT2=
EXTT3=
EXTT4=
EXTT5=
EXTT6=
EXTT7=
EXTT8=
EXTT9=
EXTT10=
EXTT11=
EXTT12=
EXTT13=
EXTT14=
EXTT15=
EXTT16=
EXTT17=
EXTT18=
EXTT19=
EXTT20=
EXTT21=
EXTT22=
EXTT23=
EXTT24=
PLAYORDER=
